<?xml version="1.0" encoding="UTF-8" standalone="no"?>
<svg
   width="100%"
   height="100%"
   viewBox="0 0 135073 34617"
   version="1.1"
   xml:space="preserve"
   style="fill-rule:evenodd;clip-rule:evenodd;stroke-linejoin:round;stroke-miterlimit:2;"
   id="svg30"
   sodipodi:docname="logo.svg"
   inkscape:version="1.1.1 (3bf5ae0d25, 2021-09-20, custom)"
   xmlns:inkscape="http://www.inkscape.org/namespaces/inkscape"
   xmlns:sodipodi="http://sodipodi.sourceforge.net/DTD/sodipodi-0.dtd"
   xmlns="http://www.w3.org/2000/svg"
   xmlns:svg="http://www.w3.org/2000/svg"><defs
   id="defs34" /><sodipodi:namedview
   id="namedview32"
   pagecolor="#505050"
   bordercolor="#eeeeee"
   borderopacity="1"
   inkscape:pageshadow="0"
   inkscape:pageopacity="0"
   inkscape:pagecheckerboard="0"
   showgrid="false"
   inkscape:zoom="0.01"
   inkscape:cx="65300"
   inkscape:cy="15100"
   inkscape:window-width="1908"
   inkscape:window-height="1048"
   inkscape:window-x="6"
   inkscape:window-y="26"
   inkscape:window-maximized="1"
   inkscape:current-layer="g28" />
    <g
   id="g28">
        <g
   id="g18"
   style="display:inline">
            <path
   d="m 134245,23691 -4192,-9480 -1096,-794 -1557,57 -596,212 -673,480 -481,673 -538,1384 -2845,7113 615,327 1653,-154 c 0,0 923,-229.5 1019,-499 96,-269.5 885,-635 885,-635 0,0 1729,231.1 1941,231 212,-0.1 1134,173 1134,173 l 193,654 1172,173 z m -7883,-3222 c 451,-60.1 2056,-66 2056,-66 0,0 -118,-1600.5 -447,-1762 -394,-193.3 115,-671.4 -356,-462 -797,354.9 -963,736.7 -843,1037 120,300.3 -522,1152 -522,1152 0,0 -339,161.1 112,101 z"
   style="fill:#ffffff"
   id="path2" />
            <path
   d="m 120373,23563 -360,-15890 h -3935 l -30,6038 -3755,330 -1863,661 -1231,721 -871,1321 -421,1683 30,1291 451,1532 1412,1322 c 3369,1223.3 6884,1610 10573,991 z m -4235,-1442 -151,-6158 c 0,0 -1290,-270.7 -1471,-30 -181,240.7 -932,1232 -932,1232 0,0 -240,629.9 -360,1171 -120,541.1 -240,1743 -240,1743 l 150,1201 1051,811 z"
   style="fill:#ffffff"
   id="path4" />
            <path
   d="m 105414,10707 -511,-2013 -841,-691 -1141,-120 -751,271 -1021,660 v 1232 l 420,631 c 0,0 630,569.5 931,600 301,30.5 932,361.2 1262,331 330,-30.2 1652,-901 1652,-901 z"
   style="fill:#ffffff"
   id="path6" />
            <path
   d="m 84568,24074 c -0.3,-0.3 150,-1412 150,-1412 l -150,-601 -931,-90 -2854,-60 c 0,0 -390,-992.1 -150,-1232 240,-239.9 449.9,-691.5 1171,-691 721.1,0.5 1502.7,-30.2 1953,-120 450.3,-89.8 180,-991 180,-991 l 90,-901 -3514,-300 811,-2103 1502,-210 1592,-90 -211,-1623 -5947,31 -1202,330 -510,601 -421,570 -60,1622 v 5257 l 751,1051 991,571 c 0,0 6759.3,391.3 6759,391 z"
   style="fill:#ffffff"
   id="path8" />
            <path
   d="m 62249,13771 c 0.5,-0.4 3245,9011 3245,9011 l 1201,781 721,451 c 0,0 691.1,150.2 1472,150 780.9,-0.2 840.2,30.6 1171,-120 330.8,-150.6 540.5,-60.5 721,-481 180.5,-420.5 1,-510.1 271,-1021 270,-510.9 2553,-8831 2553,-8831 l -1021,-30 h -1022 l -2283,7149 -2763,-7180 c 0,0 -4266.5,121.4 -4266,121 z"
   style="fill:#ffffff"
   id="path10" />
            <path
   d="m 61979,23923 -3725,-8350 -3154,-6699 -5046,-180 -6188,14599 2914,480 4776,-10964 4956,10784 z"
   style="fill:#ffffff"
   id="path12" />
            <path
   d="m 97584,23755 v -9965 l -2114,-160 -96,4678 -3461,-4101 -1121,-769 -993,-32 -1122,128 -705,866 -96,9131 2307,32 192,-5543 4069,5351 1602,544 z"
   style="fill:#ffffff"
   id="path14" />
            <path
   d="m 102170,13620 -1021,211 -60,9672 3935,571 m 0,0 c 0,-481 -30,-10183 -30,-10183 l -2824,-271"
   style="fill:#ffffff"
   id="path16" />
        </g>
        <path
   d="m 99694.5,25831.7 c -292.2,21.7 -840.5,140.5 -1341.6,291.1 -523.4,157.2 -1265,434.4 -1819.5,678.9 -516.7,227.8 -1093.9,515.5 -1599.4,796.7 -638.9,355.5 -1073.4,692.7 -1310,1017.2 -196.1,268.9 -310,632.2 -341.1,1091.1 -8.9,130.5 -3.9,410.5 8.3,464.4 13.3,58.9 26.7,85.6 53.9,108.9 27.2,22.8 60,34.5 114.4,39.5 70.6,6.6 133.4,-11.1 632.2,-177.8 612.3,-204.5 708.4,-230 1411.2,-369.5 433.3,-86.1 560.5,-113.8 666.6,-148.3 102.2,-32.8 148.4,-61.7 168.9,-103.3 23.9,-49.5 10.6,-81.7 -42.8,-105.6 -63.3,-28.3 -118.3,-34.4 -317.7,-33.9 -195.6,0 -257.3,4.5 -625,41.1 -306.7,31.2 -350.6,33.9 -399.5,27.8 -78.9,-10 -112.8,-41.1 -98.3,-90 9.4,-31.6 69.4,-90.5 136.6,-135 423.4,-277.2 1301.2,-803.3 1827.3,-1094.4 913.9,-505.6 1437.7,-711.7 1878.3,-738.9 155.6,-9.5 238.9,42.8 195,123.3 -33.9,62.2 -134.4,195 -417.2,551.7 -618.4,780.5 -869.5,1112.2 -1150,1519.4 -447.8,650.6 -720,1101.1 -994.5,1644.5 -294.4,583.3 -462.7,1029.4 -522.2,1382.2 -47.2,281.7 -12.2,587.8 98.3,852.8 67.8,163.3 175.6,342.8 301.2,501.1 69.4,87.8 231.1,248.9 313.8,312.8 192.3,148.3 387.3,248.3 556.2,285 64.4,13.9 165.5,16.6 223.3,5.5 230.5,-43.3 544.4,-243.3 951.7,-605.5 250.5,-223.4 564.4,-539.5 1055.5,-1064.5 1779.6,-1901.6 3176.6,-3746.6 3722.6,-4916.6 191,-411.2 277,-691.2 267,-869.5 -7,-131.1 -62,-210 -167,-243.3 -32,-10 -53,-12.2 -111,-12.2 -85,0 -122,8.3 -191,42.2 -42,20.5 -58,33.9 -178,148.9 -123,118.3 -428,428.3 -565,572.7 -164,175 -318,378.9 -415,552.3 -89,157.2 -141,351.6 -136,507.7 l 1,65 35,75.6 c 19,41.7 35,78.9 35,82.8 0,11.1 -303,423.9 -614,838.9 -531,706.6 -944,1226.6 -1346.4,1695.5 -744.4,868.9 -1448.9,1506.7 -2155,1951.1 l -50.5,31.7 -39.5,-23.9 c -153.9,-93.9 -271.1,-207.2 -325.5,-316.1 -10.6,-21.1 -26.1,-60 -34.5,-86.7 -13.3,-44.4 -14.4,-56.6 -14.4,-137.7 0.5,-303.4 123.9,-665.6 393.3,-1155.6 332.2,-605.6 930.6,-1543.9 1480,-2322.2 322.8,-457.2 767.8,-1047.8 1127.5,-1497.2 708,-882.3 708,-882.3 745,-955.6 20,-39.4 22,-52.2 16,-120.6 -18,-228.8 -130,-446.1 -337,-656.1 -177,-179.4 -359,-285.5 -540.9,-315 -46.7,-7.7 -146.7,-9.4 -215.6,-4.4 z m 25636.5,585.5 c -89,13.4 -206,56.7 -367,135.6 -263,128.9 -500,287.8 -789,528.3 -163,135 -265,230 -481,446.1 -276,276.7 -447,465 -681,750.6 -605,738.9 -1125,1543.3 -1457,2255.6 -260,555 -402,980.5 -466,1397.2 l -15,94.4 -136,82.2 c -565,342.3 -883,506.7 -1094,567.8 -128,36.7 -180,44.5 -300,44.5 -92,0 -114,-1.7 -139,-10.6 -80,-27.2 -129,-67.2 -161,-132.8 -38,-75.5 -43,-197.2 -15,-293.3 60,-202.2 265,-550.6 465,-791.1 22,-27.8 121,-141.1 219,-252.8 706,-802.8 800,-911.7 916,-1055.5 99,-123.4 160,-223.9 178,-297.3 16,-61.6 22,-159.4 15,-263.9 -11,-163.8 -38,-260.5 -86,-303.3 -65,-59.4 -194,-82.8 -326,-60 -93,16.1 -196,59.5 -294,123.3 -110,71.2 -493,373.4 -809,637.8 -142,118.9 -263,234.5 -588,560.6 -493,493.3 -553,545 -928,800 -236,160.5 -514,351.6 -720,494.4 -601,418.9 -890,599.5 -1041,650.6 -135,45.5 -273,2.8 -323,-100.6 -16,-32.2 -30,-100.5 -30,-144.4 0,-107.8 49,-301.7 128,-503.9 l 23,-60 48,-28.9 c 644,-386.1 1240,-837.8 1663,-1260 146,-146.1 197,-204.4 286,-323.3 131,-176.7 189,-302.8 161,-345.6 -12,-17.8 -77,-49.4 -139,-67.2 -201,-57.2 -445,-81.7 -699,-70 -363,16.7 -467,60.5 -738,312.2 -56,52.2 -191,176.7 -300,276.7 -374,342.8 -633,594.4 -799,775.5 -346,378.4 -525,670 -580,951.1 l -13,65.6 -128,76.7 c -158,95 -411,240 -594,339.4 -179,98.3 -576,296.7 -733,367.2 -406,181.7 -735,284.5 -1053,328.9 -101,14.5 -381,13.9 -472,0 -205,-32.2 -354,-87.2 -494,-181.6 -177,-118.9 -287,-276.2 -329,-466.7 -19,-84.5 -19,-221.7 0,-286.1 29,-100 85,-186.1 187,-288.9 109,-110 252,-219.5 419,-321.1 204,-125 1106,-632.2 1153,-648.9 65,-22.2 110,-18.3 139,11.7 15,15.5 17,21.6 18,60.5 1,23.3 -1,76.7 -6,117.8 -12,106.1 -1,155 42,191.1 56,47.8 164,57.2 265,23.9 227,-73.9 610,-402.2 882,-754.5 118,-155 228,-323.8 282,-436.1 70,-145 88,-244.4 66,-358.9 -17,-94.4 -58,-171.6 -130,-243.8 -98,-100.6 -215,-161.2 -369,-192.8 -78,-15.6 -264,-13.9 -361,3.3 -254,45 -544,151.7 -914,336.1 -421,210.6 -833,471.7 -1308,828.4 -589,442.2 -940,771.1 -1106,1034.4 -84,131.7 -141,280.6 -169,437.2 -6,33.4 -12,61.1 -13,61.7 -6,5.5 -260,166.7 -332,211.1 -646,398.9 -1016,553.3 -1390,581.7 -143,10.5 -309,-7.3 -432,-46.7 -171,-54.4 -307,-160 -369,-285 -36,-71.1 -44,-108.3 -44,-191.7 0,-145 44,-265.5 140,-388.3 89,-113.3 364,-345.6 865,-730.6 180,-138.8 249,-198.8 340,-297.7 262,-283.9 511,-643.9 584,-846.7 92,-256.1 -23,-406.7 -333,-437.2 -80,-7.8 -214,-3.9 -296,8.9 -370,56.1 -730,246.1 -1143,602.2 -98,84.4 -371,356.7 -472,470 -259,292.2 -527,647.2 -604,799.4 -56,112.8 -113,275 -138,397.3 l -16,75 -186,122.7 c -474,313.4 -789,502.3 -1064,638.9 -506,251.1 -912,363.9 -1311,364.5 -164,0.5 -267,-16.1 -382,-61.7 -204,-79.4 -354,-233.3 -418,-428.9 -31,-96.1 -39,-155.5 -39,-306.7 V 32160 l 236,-79.4 c 271,-90.6 352,-119.5 552,-193.9 1166,-436.1 1956,-903.3 2322,-1372.8 128,-165 209,-336.1 238,-503.3 15,-91.1 12,-218.4 -6,-282.8 -58,-199.4 -245,-326.7 -548,-372.8 -95,-14.4 -269,-19.4 -383,-11.1 -499,36.7 -1089,227.8 -1635,529.5 -410,226.1 -920,590.5 -1251,893.8 -396,361.7 -631,699.5 -752,1076.7 -37,113.9 -61,225 -83,378.3 -11,84.5 -10,410 3,508.4 59,448.9 225,774.4 519,1015 213,173.3 489,277.2 812,305 89,7.2 351,3.9 443,-6.1 577,-62.3 1057,-253.4 1669,-663.9 362,-242.8 739,-545 1142,-915.6 l 100,-92.2 3,34.4 c 2,18.9 7,64.5 11,101.2 26,266.6 104,533.3 228,780.5 80,160 143,252.8 237,351.1 162,168.4 353,265 601,302.8 81,12.2 279,13.3 353,2.8 347,-52.2 729,-221.1 1174,-518.9 307,-206.1 618,-461.1 970,-797.2 l 95,-90 4,26.1 c 45,251.6 101,429.4 201,631.6 70,139.5 139,249.5 235,369.5 53,66.1 193,206.1 263,261.1 167,132.2 349,225 527,268.3 264,64.5 598,42.8 937,-60 258,-78.3 613,-250 969,-468.3 323,-197.8 825,-556.1 1436,-1025 71,-53.9 128,-96.1 129,-93.9 1,2.2 5,35 10,73.3 38,298.9 142,571.2 298,777.8 158,208.9 355,342.8 582,395 34,8.4 77,12.2 148,14.5 88,2.2 107,1.1 158,-9.5 281,-57.2 585,-252.2 1047,-668.9 316,-285.5 878,-838.3 1341,-1321.6 99,-102.8 182,-187.3 183,-187.3 1,0 -3,8.4 -9,17.8 -69,115 -321,561.1 -434,771.1 -333,616.1 -411,853.4 -375,1130.6 20,155.5 84,278.9 184,358.9 179,142.2 506,171.6 826,74.4 235,-71.1 576,-256.6 968,-526.6 211,-145.6 716,-506.2 1090,-777.8 75,-54.5 137,-98.4 140,-98.4 2,0 6,31.2 8,68.9 4,87.3 21,222.8 39,322.3 59,313.8 178,591.1 342,797.7 45,55 138,147.8 188,186.1 122,92.3 261,152.3 423,181.7 87,16.1 282,17.2 378,2.8 436,-67.2 908,-311.1 1472,-761.7 225,-179.4 428,-361.6 724,-648.9 145,-141.1 165,-158.9 167,-147.7 2,7.2 9,40 15,73.8 90,463.9 389,896.7 781,1132.3 342,205 740,263.3 1128,165.5 402,-101.6 851,-375.5 1344,-820 l 97,-88.3 201,-0.6 c 328,-2.2 527,-30.5 704,-101.1 176,-69.4 480,-247.2 739,-430.5 25,-18.4 49,-34.5 53,-35.6 5,-2.2 8,12.2 11,51.7 8,137.2 38,307.2 70,410 50,160 172,330 354,493.3 446,401.7 976,606.7 1526,591.1 123,-3.9 197,-11.6 320,-35 598,-112.8 1364,-500.5 2294,-1162.2 53,-38.3 189,-138.3 302,-222.2 l 204,-152.8 v -415 l -57,37.2 c -477,308.4 -782,488.9 -1062,627.8 -341,168.3 -650,278.9 -909,326.1 -142,25.6 -175,28.3 -342,28.3 -157,0 -231,-5 -395,-26.6 l -49,-6.7 130,-68.9 c 646,-340.5 1078,-639.4 1392,-962.2 266,-273.3 437,-553.9 508,-831.1 36,-141.1 47,-251.1 43,-412.8 -7,-256.7 -36,-381.1 -187,-822.2 -125,-363.3 -149,-441.7 -161,-538.3 -10,-70 1,-174.5 25,-250.6 2,-4.4 -8,-34.4 -21,-66.7 l -25,-58.3 -54,-18.3 c -197,-67.8 -403,-71.7 -583,-11.1 -271,90.5 -442,311.6 -542,701.6 -5,18.4 -16,30.6 -60,69.5 -545,478.3 -1370,1178.9 -2391,2031.1 l -293,243.9 -154,91.1 c -366,216.1 -455,262.8 -577,303.9 -83,27.2 -140,35.5 -247,35.5 l -92,-0.5 -67,-52.8 c -37,-28.9 -67,-55 -68,-57.2 -1,-2.8 16,-29.5 39,-59.5 117,-156.6 224,-331.6 318,-521.6 137,-277.3 237,-566.2 278,-808.4 27,-152.8 24,-339.4 -6,-461.1 -41,-162.2 -126,-239.4 -328,-297.8 -35,-10 -149,-35.5 -159,-35.5 -1,0 19,-22.8 47,-50.6 57,-60 99,-121.1 116,-170.5 16,-48.4 13,-112.8 -7,-156.7 -52,-112.8 -225,-198.3 -466,-230.6 -520,-68.8 -1053,45 -1692,361.2 -720,356.6 -1389,926.6 -1771,1508.3 -144,220 -240,433.3 -276,613.9 l -7,33.3 -95,68.9 c -919,666.7 -940,681.1 -1157,805.6 -138,78.3 -252,126.1 -360,149.4 -69,15 -270,12.8 -344,-3.3 -159,-35.6 -262,-90.6 -370,-200.6 -130,-130.5 -200,-273.9 -235,-478.3 -16,-92.8 -17,-265.6 -2,-363.9 10,-70 38,-217.8 51,-269.5 4,-16.6 9,-37.2 10,-45.5 2,-11.1 28,-35.6 89,-86.1 1100,-919.5 1933,-1805.6 2518,-2679.5 552,-823.9 802,-1512.2 758,-2083.3 -18,-230 -59,-316.7 -167,-350.6 -40,-12.2 -114,-17.2 -158,-10 z m 2949,3883.9 c -3,3.9 -35,48.4 -72,98.9 -275,373.9 -482,715 -585,958.9 -95,227.2 -140,433.9 -140,652.2 0,177.8 27,309.5 98,490 17,41.7 30,77.8 30,80.6 0,5.5 -195,113.3 -333,184.4 -256,131.1 -461,213.9 -631,254.5 -64,15 -71,15.5 -208,15.5 -106,-0.5 -158,-2.7 -208,-10.5 -185,-27.2 -293,-70.6 -373,-150.6 -69,-67.8 -98,-136.1 -98,-230.5 0,-54.5 24,-156.1 129,-536.1 68,-245.6 81,-280 150,-382.3 127,-188.9 332,-372.2 661,-590 267,-176.6 564,-340 1120,-616.6 245,-121.7 457,-225 462,-225 1,0 0,3.3 -2,6.6 z m 4446,438.4 77,480 v 158.3 c 0,177.8 -7,236.7 -39,363.9 -59,232.2 -171,405.5 -362,564.4 -164,137.3 -387,256.7 -646,346.1 l -57,20 -12,-15 c -152,-192.7 -362,-420.5 -465,-503.8 -56,-44.5 -160,-97.8 -258,-131.2 -75,-25.5 -234,-66.1 -329,-83.8 -34,-6.7 -63,-13.4 -63,-15.6 0,-2.2 9,-10 19,-17.2 9,-7.2 135,-104.5 279,-216.1 786,-611.1 1376,-1085.6 1699,-1366.7 43,-36.7 78,-66.7 79,-65.6 1,1.2 37,217.8 78,482.3 z m -27426,-711.1 c 73,11.6 105,41.1 117,107.7 11,57.3 -14,137.3 -74,236.1 -150,247.8 -366,467.3 -690,699.5 -329,236.1 -668,413.9 -1083,569.4 -121,45.6 -335,117.3 -339,113.9 -4,-3.3 25,-112.8 43,-163.3 57,-161.7 146,-324.5 252,-461.1 103,-131.7 291,-325 424,-436.1 391,-325 969,-629.5 1270,-668.4 31,-3.9 44,-3.9 80,2.3 z m 19449,-2367.8 c 42,21.6 59,61.6 58,136.6 -2,260.6 -294,799.5 -785,1452.8 -362,482.8 -777,931.7 -1189,1286.1 -103,88.9 -257,213.9 -260,211.1 -2,-2.7 56,-194.4 95,-311.6 205,-604.5 521,-1200 955,-1800.6 189,-260.5 350,-453.3 524,-626.6 148,-147.3 305,-271.7 398,-315.6 105,-49.4 155,-57.2 204,-32.2 z M 111069,26200 c -217,12.8 -381,48.4 -511,111.1 -182,87.8 -426,303.9 -686,608.4 -272,318.3 -462,560.5 -586,747.2 -132,198.3 -179,312.2 -159,384.4 31,110 245,215.6 382,187.8 211,-42.8 879,-447.2 1451,-876.7 464,-349.4 731,-600.5 808,-761.6 14,-29.5 18,-45.6 20,-82.8 9,-170 -120,-276.1 -377,-308.9 -83,-10.5 -243,-15 -342,-8.9 z"
   style="display:inline;fill:#ff3737;fill-opacity:1"
   id="path20" />
        
        <path
   d="m 89616.7,13148.3 c -466.1,20 -840,105.6 -1150,262.8 -332.7,169.5 -573.9,411.7 -736.1,741.1 -120,243.9 -189.4,502.3 -222.2,825.6 -19.4,192.8 -20,335.5 -18.3,4519.4 l 1.6,4127.8 11.7,31.7 c 35.6,96.7 103.9,160 200,185 27.8,7.2 107.8,8.3 558.9,8.3 h 526.7 v 543.4 c 0,482.7 1.1,544.4 8.8,555.5 l 8.4,12.2 h 1018.3 c 979.5,0 1018.9,-0.5 1027.2,-10 8.9,-9.4 9.5,-224.4 10.6,-2955 l 1.7,-2944.4 1388.9,1813.3 c 763.8,997.8 1435,1869.5 1491.1,1937.2 203.9,244.5 331.6,385.6 525,578.4 223.3,222.8 400,371.6 578.9,487.8 50.5,32.7 62.2,43.8 124.4,118.8 352.8,422.8 668.3,741.7 927.8,937.8 388.9,293.4 807.8,421.7 1298.9,397.2 440.5,-21.6 745.5,-134.4 957.2,-353.3 213.9,-222.2 332.2,-583.3 360.5,-1105 3.4,-63.3 5.6,-1680 5.6,-4440.6 0,-4332.7 0,-4340 -11.1,-4351.1 -11.1,-11.1 -18.3,-11.1 -405.6,-11.1 h -393.9 l -1.6,-685 c -1.7,-646.6 -2.2,-686.1 -12.2,-715 -30,-91.1 -95.6,-157.2 -183.9,-185 l -38.9,-12.2 h -2094.5 l -37.7,12.8 c -87.8,30.5 -151.2,96.1 -182.3,187.2 -6.6,18.3 -8.3,370.6 -10.5,2104.4 l -2.8,2082.8 -1130.6,-1462.8 c -1302.7,-1686.1 -1228.8,-1590.5 -1350.5,-1736.6 -141.7,-169.5 -237.2,-273.4 -390.6,-427.2 -345.5,-345.6 -640.5,-565.6 -997.7,-744.5 -488.4,-244.4 -1057.3,-357.8 -1661.2,-331.7 z m -27441.6,318.4 c -150.6,20 -260,165 -236.2,313.3 3.9,25 489.5,1363.3 1450.6,3999.5 794.4,2179.4 1461.1,4006.1 1481.1,4059.4 320.6,852.8 728.3,1466.1 1212.2,1823.9 121.1,89.4 303.9,199.4 403.4,242.8 l 41.1,17.8 41.6,70.5 c 207.3,349.5 446.2,628.3 707.3,824.5 392.2,295 885,453.8 1546.1,498.8 122.2,8.4 462.2,8.4 583.3,0 481.1,-32.7 861.1,-127.7 1209.5,-302.2 624.4,-313.3 1089.4,-922.8 1426.1,-1870.5 79.4,-224.5 2753.3,-8041.2 2753.3,-8050 0,-5 -3.3,-13.9 -7.8,-20 -7.8,-10.6 -22.2,-10.6 -623.9,-13.4 l -616.1,-2.8 212.8,-622.2 c 117.2,-342.2 215.6,-638.3 218.9,-658.3 15.5,-93.9 -29.5,-200.6 -108.9,-259.5 -36.7,-27.7 -77.8,-43.8 -129.4,-51.6 -25,-3.9 -392.8,-5.6 -1120.6,-4.5 l -1083.3,1.7 -36.7,12.8 c -71.1,23.9 -128.9,72.2 -160.6,134.4 -8.3,16.7 -485,1446.1 -1058.8,3176.1 -573.9,1730.6 -1045,3144.5 -1047.3,3141.7 -2.7,-2.8 -1260,-3710.6 -1628.3,-4802.8 -9.4,-26.6 -20.6,-52.2 -25,-56.6 -6.7,-7.3 -35,-8.4 -173.3,-8.4 h -165 l -240.6,-712.8 c -132.8,-391.6 -247.8,-724.4 -255.5,-739.4 -7.8,-15.6 -27.8,-42.2 -44.5,-60 -36.1,-39.4 -101.1,-73.3 -156.1,-82.2 -43.3,-6.7 -4318.3,-6.7 -4369.4,0 z m 65771.9,-318.4 c -90,3.4 -275,19.5 -372,32.3 -518,70 -948,242.2 -1290,515 -88,70.5 -269,250 -349,346.1 -271,328.3 -508,737.2 -729,1261.1 -42,97.8 -3266,8107.2 -3292,8175 -16,43.3 -19,121.7 -7,164.4 27,92.3 84,155 177,192.8 l 29,12.2 1512,5.6 -214,530.6 c -117,291.6 -214,537.7 -214,546.6 0,33.4 -74,31.1 1092,31.1 976,0 1071,-0.5 1077,-8.9 5,-5 155,-408.3 334,-896.1 l 325,-886.6 h 3270 l 101,264.4 c 55,145 107,275.6 115,289.5 33,55 108,106.1 176,120.5 19,3.9 137,6.1 348,6.1 h 319 l 16,42.8 c 9,23.9 102,269.4 207,546.1 105,276.7 194,507.2 199,512.2 8,9.5 116,10 2143,10 2060,0 2134,-0.5 2143,-10 5,-5.5 9,-15.5 9,-22.2 0,-6.7 -720,-1773.9 -1600,-3927.2 -881,-2153.9 -1650,-4036.7 -1711,-4185 -60,-148.4 -124,-302.2 -141,-341.7 -206,-465 -412,-806.1 -645,-1070 l -58,-64.4 -46,-116.1 c -188,-465.6 -411,-876.7 -631,-1165.6 -182,-237.2 -388,-428.9 -599,-556.7 -430,-258.9 -1003,-378.3 -1694,-353.9 z m -82988.1,6737.8 177.2,-410.5 2336.2,-5405.6 c 1285,-2973.3 2343.9,-5422.22 2353.3,-5442.22 33.3,-70.55 96.7,-123.33 177.2,-148.33 32.2,-9.44 124.5,-10 2600,-10 h 2566.7 l 38.9,12.22 c 78.9,25 133.9,74.45 171.6,154.45 13.4,27.22 167.3,360.55 342.3,740 l 317.7,690.58 h 77.3 c 66.6,0 78.3,1.1 87.2,10 5,5 327.2,698.9 715,1541.1 388.3,842.2 707.2,1529.4 708.9,1527.2 2.2,-1.7 1195,2602.2 1195,2602.2 l 2113.3,4582.8 c 1162.2,2520 2113.4,4588.9 2113.4,4596.7 0,7.8 -3.9,18.9 -9.5,24.4 -8.9,9.5 -103.3,10 -2802.2,10 H 57445 l -9.4,-12.2 c -5,-7.2 -118.3,-256.7 -252.2,-554.4 l -243.4,-541.7 -296.1,-2.8 c -331.1,-3.3 -322.7,-2.8 -386.1,-43.3 -40,-26.1 -78.9,-68.3 -98.9,-107.8 -7.7,-16.1 -450.5,-1000.5 -983.3,-2187.8 -940,-2094.4 -1747.2,-3890 -1750.6,-3893.3 -0.2,-0.5 -539.8,-1179 -538.8,-1180 1.6,-1.7 -218.9,-490 -489.5,-1085.6 -270.5,-595.5 -493.9,-1086.1 -496.1,-1090 -2.2,-3.9 -278.9,660 -637.8,1530.6 -348.9,846.1 -636.1,1541.7 -637.8,1547.2 -1,2.7 -516.1,1247.8 -527.7,1276.7 -11.7,28.9 -198.4,465 -415,969.4 -217.3,503.9 -816.7,1915.6 -1333.4,3136.1 -516.1,1220.6 -942.8,2223.9 -947.2,2228.9 -8.3,9.5 -79.4,10 -1350.6,10 -1241.1,0 -1342.7,-0.5 -1352.2,-9.4 -5.5,-5 -10,-14.5 -10,-21.7 0,-7.2 103.4,-252.2 230,-545 l 230,-532.2 -770.5,-2.8 -770,-2.8 -32.3,-12.2 c -96.6,-36.6 -159.4,-110.5 -180.5,-213.3 -10.6,-51.7 -5,-105.6 16.7,-157.8 7.7,-18.3 357.2,-827.2 776.6,-1797.2 419.5,-970 766.1,-1771.7 770,-1780.6 z M 101006,13467.2 c -100,16.7 -194,102.3 -220,202.3 -7,29.4 -8,553.8 -8,4986.1 0,4430 1,4956.6 8,4986.1 26,100.5 115,184.4 214,202.8 18,3.3 228,5.5 553,5.5 h 525 v 546.7 c 0,490 1,547.8 9,555.5 8,8.4 200,8.9 2041,8.9 h 2033 l 8,-12.2 c 8,-11.1 9,-488.9 9,-4938.9 0,-4919.4 0,-4926.7 -11,-4937.8 -11,-11.1 -19,-11.1 -406,-11.1 h -394 l -1,-685 -2,-684.4 -13,-36.1 c -31,-86.7 -98,-152.8 -184,-181.7 -30,-9.4 -108,-10 -2081,-10.6 -1203,-0.5 -2063,1.2 -2080,3.9 z m 14980,-6038.86 c -106,17.78 -190,93.33 -221,198.89 -9,27.78 -9,279.44 -9,2932.27 v 2901.6 h -215 c -1065,0.6 -1929,63.4 -2749,200.6 -1992,332.8 -3473,1105.5 -4347,2268.9 -339,451.1 -589,979.4 -734,1550 -147,582.2 -194,1237.2 -135,1883.3 82,907.8 396,1703.3 927,2350 260,317.2 595,620.6 952,860.6 l 73,50 60,83.3 c 208,293.9 468,566.1 768,806.1 730,583.9 1697,992.8 2894,1221.7 656,125.5 1350,196.1 2164,220 117,3.3 1238,5.5 2953,5.5 2379,0 2766,-1.1 2775,-7.7 11,-7.8 11,-95 11,-7961.7 0,-7866.69 0,-7953.92 -11,-7961.69 -9,-6.67 -74,-7.78 -407,-7.78 h -396 v -682.22 c 0,-611.67 -1,-685.56 -9,-712.78 -27,-91.11 -89,-156.67 -180,-189.45 l -36,-12.77 -2050,-0.56 c -1127,-0.55 -2062,1.11 -2078,3.89 z M 78550.1,13465 c -983.9,21.1 -1680,228.9 -2096.2,623.3 -375,356.2 -579.4,892.8 -620.5,1628.4 -8.9,156.1 -4.5,5894.4 4.4,5980.5 26.1,249.5 48.9,394.5 87.3,551.7 175,718.3 561.6,1151.1 1238.3,1387.2 l 82.8,28.9 26.1,77.2 c 107.2,316.7 262.2,552.3 480,729.5 280.5,228.9 708.3,381.1 1258.9,447.2 108.9,13.3 156.1,17.8 330.5,32.2 57.3,4.5 914.5,6.7 3241.7,8.4 2744.4,1.6 3165.6,0.5 3175,-6.1 11.1,-7.8 11.1,-18.9 11.1,-764.5 0,-742.2 0,-756.7 -10.5,-764.4 -9.5,-6.7 -73.9,-7.8 -407.3,-7.8 h -396.1 v -679.5 c 0,-592.2 -1.1,-683.3 -8.3,-712.2 -26.7,-100.5 -115,-183.9 -216.1,-202.2 -23.4,-4.4 -546.1,-6.1 -1768.4,-6.1 h -1735 v -1033.3 h 1932.3 c 1865.5,0 1932.7,-0.6 1941.6,-10 8.9,-9.5 9.5,-70.6 9.5,-763.4 0,-722.2 -0.6,-753.3 -10,-761.7 -9.5,-8.8 -45.6,-9.4 -405.6,-9.4 h -395.5 v -671.7 c 0,-430.5 -2.3,-682.2 -5.6,-701.1 -15,-78.9 -73.9,-158.3 -143.9,-193.9 -70.5,-35 26.7,-33.3 -1516.6,-33.3 h -1407.8 l 3.3,-98.9 c 11.7,-326.7 89.5,-573.3 222.2,-702.2 104.5,-102.2 293.9,-170.6 562.3,-203.9 199.4,-25 170,-24.4 1892.7,-26.7 1468.9,-1.6 1649.5,-3.3 1657.3,-10.5 7.2,-7.8 8.3,-93.9 8.3,-762.8 0,-723.9 -0.6,-755 -10,-763.3 -9.5,-8.9 -45.6,-9.5 -405.6,-9.5 h -395.5 v -675 c 0,-471.1 -1.7,-683.3 -6.1,-703.9 -22.8,-108.3 -117.3,-197.7 -227.3,-215.5 -24.4,-3.9 -980.5,-5 -2975,-4.5 -1616.1,0.6 -2967.7,1.7 -3002.7,2.8 z m 11451.1,240.6 c 549.4,37.2 1012.2,205 1440,521.1 286.7,211.6 593.9,518.9 895.5,895.5 66.7,83.4 1682.3,2172.3 2587.3,3344.5 161.1,209.4 305.5,392.2 320.5,406.6 53.4,50.6 123.4,74.5 202.8,70 113.3,-6.6 200,-72.7 242.8,-185.5 l 12.8,-32.8 1.6,-2354.4 1.1,-2353.9 h 1450 l -1.6,4262.2 c -1.7,3167.2 -3.4,4277.8 -8.4,4321.1 -33.3,303.4 -75,476.1 -151.1,628.4 -135.5,270 -390.5,400 -838.9,427.7 -388.9,23.9 -721.1,-61.6 -1023.9,-263.9 -153.3,-102.2 -268.3,-200.5 -476.6,-408.8 -190.6,-190 -342.2,-357.8 -522.2,-577.8 -26.2,-32.2 -969.5,-1262.2 -2096.7,-2733.4 -1126.7,-1471.1 -2060,-2687.2 -2073.9,-2701.6 -33.9,-35 -101.7,-68.9 -152.2,-75.6 -72.2,-10 -144.5,8.9 -204.5,52.2 -55,40.6 -94.4,106.1 -105,175 -4.4,24.5 -6.1,1013.9 -6.1,3103.9 v 3068.4 h -1450 l 1.7,-4085 c 1.1,-3820.6 2.2,-4090 11.1,-4170.6 44.4,-402.2 142.2,-665 328.9,-883.3 131.1,-153.9 354.4,-285.6 607.2,-357.8 164.4,-47.8 350,-78.3 551.1,-91.7 102.8,-6.6 358.9,-7.2 456.7,-0.5 z m -22443.4,4015 c 690,2037.7 1262.3,3718.9 1271.1,3736.6 52.3,97.3 171.2,156.2 280.6,137.8 82.2,-13.9 164.4,-71.1 197.8,-137.2 7.8,-15.6 146.6,-427.8 308.9,-916.7 162.2,-488.3 715.5,-2156.6 1229.4,-3706.6 l 934.5,-2817.8 h 768.3 c 422.8,0 768.3,1.1 768.3,2.8 0,3.8 -2600.5,7600 -2633.9,7692.2 -145.5,407.8 -335,776.1 -537.2,1046.7 -371.1,495.5 -845.5,765.5 -1520.5,863.3 -460.6,67.2 -1032.3,44.4 -1451.2,-57.8 -593.8,-144.4 -992.2,-442.2 -1348.3,-1009.4 -141.7,-225 -293.3,-535 -410.5,-837.8 -24.5,-62.2 -2695.6,-7383.4 -2787.8,-7640.6 l -21.1,-59.4 h 3697.7 z M 119789,7977.78 V 23295 l -2759,-2.2 c -1999,-1.7 -2793,-3.9 -2877,-8.3 -64,-3.9 -186,-10.6 -270,-15 -2330,-129.5 -4003,-769.5 -4937,-1888.9 -513,-615 -787,-1368.9 -835,-2294.5 -8,-141.6 -4,-509.4 6,-638.9 39,-525 139,-960.5 317,-1391.6 44,-108.4 157,-333.9 217,-436.1 341,-583.4 838,-1072.8 1490,-1468.4 1071,-648.9 2527,-1021.6 4348,-1112.2 303,-15 424,-17.8 978,-20 354,-1.7 603,-5 620,-8.3 99,-18.9 185,-100 210,-196.7 8,-29.4 9,-345.6 9,-2934.4 V 7977.78 Z m 8683,5735.52 c 561,56.7 934,223.9 1216,545 238,271.2 457,653.4 667,1166.7 21,51.7 753,1843.3 1627,3980.6 l 1589,3886.1 -1817,1.7 c -999,0.5 -1818,0.5 -1818,-0.6 -1,-1.1 -141,-367.8 -311,-815.6 -170,-447.2 -315,-824.4 -323,-837.7 -33,-56.7 -92,-102.8 -156,-122.8 -35,-11.1 -57,-11.1 -2144,-11.1 h -2108 l -34,11.6 c -68,22.8 -132,77.8 -160,138.9 -8,16.7 -147,391.7 -309,833.9 l -294,804.5 h -1513 l 8,-18.4 c 4,-9.4 703,-1747.7 1554,-3862.2 851,-2114.4 1566,-3888.3 1589,-3941.7 272,-631.6 575,-1085.5 898,-1347.2 121,-97.2 323,-209.4 484,-268.3 219,-80.6 466,-129.5 761,-150.6 106,-7.8 492,-2.8 594,7.2 z m -44266.4,303.4 v 927.8 h -1492.8 c -924.4,0 -1525,2.2 -1576.6,5.5 -510.6,33.9 -823.9,146.1 -1004.5,360 -138.3,164.5 -214.4,368.9 -257.7,690 -8.4,62.2 -9.5,167.8 -11.2,1016.7 -2.2,937.8 -2.2,947.2 9.5,983.9 12.8,43.3 46.7,96.6 79.4,125 29.5,25.5 92.3,56.1 131.1,63.3 20,3.9 640.6,5.6 1845.6,5.6 h 1816.1 v 922.2 l -1828.9,1.1 c -1757.8,1.7 -1830.5,2.2 -1860,11.7 -42.2,14.4 -75.5,34.4 -109.4,66.6 -36.1,33.9 -58.4,68.9 -73.4,113.4 -11.6,34.4 -11.6,37.7 -11.6,953.3 0,937.2 1.1,994.4 22.2,1140 56.1,391.1 206.1,643.3 466.7,784.4 150.5,81.7 377.7,139.5 653.3,165.6 189.4,17.8 340,19.4 1867.8,19.4 h 1534.4 v 922.3 l -3026.1,-1.7 c -2261.7,-1.7 -3045.5,-3.3 -3101.7,-8.3 -321.1,-28.4 -473.8,-50 -676.6,-96.1 -272.8,-62.3 -510,-163.4 -677.3,-287.8 -278.8,-207.2 -452.2,-570.6 -515.5,-1081.1 -28.3,-232.3 -27.2,-82.8 -29.5,-3063.9 -1.6,-2843.4 -1.1,-2970.6 18.9,-3168.4 45.6,-459.4 170,-805 373.4,-1034.4 287.8,-325 861.6,-503.9 1709.4,-532.2 24.5,-1.1 1322.8,-2.3 2885,-2.8 z m 20605.4,0 v 9277.8 h -3478 v -9277.8 z m -56918.7,5137.2 c -2.3,5.6 -396.7,939.4 -877.3,2075 l -873.3,2065.6 h -1026.1 c -565,0 -1026.7,-1.1 -1026.7,-2.8 0,-5 1545.6,-3577.8 1549.5,-3582.2 1.3,-1.3 219.2,-505.3 218.9,-505.6 -0.6,-1.1 985,-2284.4 2190.5,-5073.9 1205.6,-2789.4 2195.6,-5079.99 2199.5,-5089.99 l 7.7,-17.78 2347.8,1.11 2348.4,1.67 1152.2,2498.89 1152.2,2499.4 c 0,0 906.1,1988.9 910.6,1989.5 3.8,0.5 747.7,1606.1 1684.4,3637.2 922.2,2000 1676.7,3637.8 1677.2,3640.6 0,2.2 -1112.8,3.3 -2473.3,2.8 l -2473.3,-1.7 -937.8,-2088.9 c -515.6,-1148.9 -1105,-2461.7 -1310,-2916.7 -205,-455.5 -372.2,-830.5 -372.2,-833.3 0,-3 -550.3,-1225 -552.3,-1225 -3.3,0 -63.3,-125.6 -132.7,-279.5 -70,-153.3 -518.4,-1139.4 -996.7,-2190.5 -808.9,-1780 -871.1,-1913.9 -897.2,-1943.3 -47.8,-53.9 -97.3,-81.2 -169.5,-92.3 -112.2,-18.3 -233.3,46.7 -282.2,151.1 -10.6,22.3 -505,1219.5 -1098.9,2660 -725.5,1759.5 -1159.4,2802.8 -1320.5,3177.8 -131.7,307.2 -242.8,561.1 -246.2,564.5 -3.8,3.3 -370,870 -372.7,878.3 z M 115911,14831.7 c -1224,26.6 -2169,280.5 -2797,750.5 -235,176.1 -417,368.4 -583,617.8 -86,128.9 -124,193.9 -195,341.1 -286,587.2 -419,1317.8 -406,2231.1 3,253.4 7,338.4 26,544.5 101,1109.4 472,1908.9 1115,2398.9 614,467.2 1501,717.2 2712,762.2 273,10 307,7.8 377,-26.7 65,-31.1 124,-109.4 140,-183.3 8,-40.6 8,-7192.2 0,-7228.9 -10,-42.2 -39,-93.9 -72,-127.2 -55,-55.6 -129,-85 -211,-82.8 -23,0.6 -71,1.7 -106,2.8 z m -155,4437.8 v 2652.7 h -41 c -49,0 -183,-8.3 -318,-20 -717,-61.1 -1299,-215 -1733,-457.7 -64,-36.1 -230,-144.5 -241,-157.3 -16,-19.4 -70,-333.3 -92,-534.4 -44,-406.1 -48,-916.7 -11,-1336.1 70,-782.2 287,-1409.5 643,-1852.2 368,-457.3 927,-761.7 1704,-928.4 47,-10 86,-18.9 88,-18.9 0,-0.5 1,1193.4 1,2652.3 z m 11261,-3391.2 c -76,12.8 -159,72.8 -194,141.7 -23,47.8 -1623,4304.5 -1632,4343.9 -14,59.5 0,137.2 34,195.6 32,53.9 101,104.4 166,121.6 24,6.1 292,7.8 1615,7.8 1574,0 1587,0 1624,-11.1 92,-28.3 164,-108.3 185,-205 10,-47.8 9,-78.9 -3,-122.8 -17,-60 -1489,-4295 -1505,-4327.8 -20,-41.1 -79,-99.4 -120,-118.9 -34,-16.1 -95,-31.1 -123,-30.5 -9,0.5 -31,2.8 -47,5.5 z m 905,3585.6 c 128,369.4 232,672.8 231,673.3 -1,1.1 -222,1.1 -493,0.6 l -492,-1.7 257,-681.6 c 171,-454.5 257,-678.4 260,-672.3 2,5 109,311.7 237,681.7 z M 102872,7748.34 c -543,40 -1002,203.89 -1397,500.56 -457,342.77 -713,759.44 -773,1256.66 -12,101.67 -12,294.45 1,397.23 59,500.01 328,925.51 802,1271.11 137,100 341,215.6 493,278.9 49,20.5 51,22.2 58,43.9 14,48.3 56,151.1 89,214.4 183,359.5 574,696.1 1022,880.6 363,149.4 806,208.9 1249,166.6 500,-48.3 932,-223.3 1295,-525 318,-265 506,-581.6 565,-950 13,-81.1 15,-351.6 3,-430.5 -41,-272.8 -141,-504.5 -312,-719.5 -99,-125 -281,-291.07 -428,-389.4 l -61,-41.11 v -41.67 c -1,-95.56 -18,-240 -42,-344.45 -89,-391.66 -316,-737.22 -670,-1020 -404,-322.77 -890,-505.55 -1452,-546.66 -70,-5 -380,-6.11 -442,-1.67 z m 473,560 c 283,28.33 516,93.33 744,208.89 335,168.89 601,421.67 728,691.11 74,155.56 105,306.11 105,497.22 0,191.12 -31,332.74 -108,491.64 -62,129.5 -139,232.8 -259,350.6 -144,140.5 -293,246.7 -477,338.3 -227,113.9 -465,179.5 -756,209.5 -104,10.5 -398,8.9 -505,-2.8 -447,-49.5 -807,-201.7 -1123,-474.5 -332,-287.2 -481,-631.62 -444,-1026.63 33,-349.44 213,-641.11 554,-896.66 324,-243.34 699,-372.78 1149,-397.23 76,-3.88 307,2.23 392,10.56 z"
   style="display:inline;fill:#1f1f1f;fill-opacity:1"
   id="path24" />
        <path
   d="m 38388.9,12712.2 c 0,2.8 23.4,44.5 52.2,92.3 2320.349,1745.474 2247.173,11381.959 -641.222,11982.746 -1672.36,402.26 -3199.854,33.113 -4685.378,104.954 -90.837,59.441 -289.48,205.664 -272.8,214.5 4628.074,607.823 6086.817,882.463 7447.771,-1852.159 1269.89,-2942.298 524.151,-8305.803 -868.871,-10139.541 -96.1,-63.9 -208.9,-111.1 -598.3,-250 -132.8,-47.8 -285,-102.8 -337.3,-122.2 -52.7,-20 -96.1,-33.3 -96.1,-30.6 z m 22285,-7884.42 c -12037.116,883.9982 -13037.052,6648.838 -24821.1,4650 -6124.333,-609.8469 -9210.203,4158.812 -9610,9430.52 -63.566,2032.763 -1529.338,3418.683 -2740.339,4217.7 2546.416,-347.029 4188.703,-1054.143 5392.992,-2391.691 1263.204,-2683.984 949.822,-5516.682 2672.947,-7873.209 2078.347,-2396.888 6275.359,-3318.9203 8351.1,-1008.3 -4319.512,-1204.875 -6147.817,690.099 -7296.1,3050 -938.202,2711.748 -882.346,5605.694 -1198.4,8005.6 -4009.401,1532.974 -6655.38,2424.186 -12211.71,1137.526 1098.245,-1982.117 3465.9,-1450.541 3475.61,-3394.226 -7714.241,1309.12 -17703.4786,-351.423 -21415.01,-2038.9 -203.5234,2357.574 2992.7677,2645.188 3031.0055,4039.944 C 1383.3276,22133.933 -459.35782,21535.564 204.54632,20574.495 577.94723,9829.1046 10095.052,8842.5321 17350,7260.56 25471.711,2329.8875 35390.051,-121.95683 43702.8,27.778 c 6583.718,420.38449 12555.378,1185.2608 18211.1,3155.562 2811.197,457.2108 4507.582,1052.0045 5620.6,2436.11 544.828,1300.5071 1297.065,2543.6397 1085.6,3790.56 -837.945,-183.8136 -1085.6,-3790.56 -3763.146,-4104.3043 -1315.261,-35.5148 -2477.575,902.2689 -2678.68,2144.3317 -151.072,2244.3847 851.443,4764.2056 -792.8,6357.1796 -6607.648,2186.051 -11100.467,4775.229 -18496.574,6494.983 7517.426,-2486.025 9691.826,-3243.331 13532.3,-5408.3 3798.73,-3492.068 -652.286,-7881.7051 4252.7,-10066.12 z M 36680,24017.8 c 1219.261,288.04 1618.004,-289.833 1937.3,-1097.2 5.5,-14.5 8.3,-26.1 5.5,-26.1 -399.656,343.458 -1031.687,764.872 -1532.79,651.93 -1093.246,-2195.471 -1544.949,-6489.429 147.79,-9071.43 580.166,-639.575 1182.345,285.745 1626.7,340.6 3.9,-3.9 -177.8,-408.9 -232.8,-518.9 -299.505,-481.142 -609.111,-621.526 -1140,-802.2 -2245.394,1641.437 -2726.137,7848.175 -811.7,10523.3 z M 18719.5,8538.9 c 8751.693,1127.0163 9942.972,725.3205 11471.384,547.1325 C 25643.582,9873.1964 25691.146,14074.25 23964.117,18021.777 17893.784,20713.707 10676.06,19790.819 4494.45,18352.2 3382.3374,18061.438 1588.8754,17556.297 1897.22,16222.8 5141.9198,9819.8081 12684.138,8474.8572 18719.5,8538.9 Z m 1454.818,8967.937 c -4738.559,383.345 -12530.4358,42.207 -16415.1561,-1750.196 3565.8639,3380.182 10834.8161,3035.012 16415.1561,1750.196 z M 43731.7,2146.67 C 41510.172,5363.1505 40421.617,6456.852 37695.357,8344.7154 41964.538,7738.7646 43147.433,3110.5642 46416.7,2308.34 49205.048,1549.2523 55278.943,2376.1412 56350,4117.23 47755.842,5891.4444 46034.575,9844.3296 36138.9,8356.12 30237.783,7485.1192 27701.232,9456.1222 18628.483,7515.4859 19192.979,6653.7668 32267.456,-1052.2238 43731.7,2146.67 Z"
   style="display:inline;fill:#ff3737;fill-opacity:1"
   id="path26"
   sodipodi:nodetypes="sccccccccscccccccccccccccccccccccccccccccccccccccccccccccccc" />
    </g>
</svg>
